<svg height="512pt" viewBox="-47 0 511 512" width="512pt" xmlns="http://www.w3.org/2000/svg"><path d="m222.140625 247.296875h-77.476563c-4.179687 0-7.570312 3.390625-7.570312 7.570313 0 4.183593 3.390625 7.574218 7.570312 7.574218h77.476563c4.183594 0 7.574219-3.390625 7.574219-7.574218-.003906-4.179688-3.390625-7.570313-7.574219-7.570313zm0 0"/><path d="m103.96875 297.28125h116.65625c4.183594 0 7.570312-3.390625 7.570312-7.570312 0-4.179688-3.386718-7.570313-7.570312-7.570313h-116.65625c-4.183594 0-7.574219 3.390625-7.574219 7.570313 0 4.179687 3.390625 7.570312 7.574219 7.570312zm0 0"/><path d="m229.710938 325.984375c0-4.183594-3.386719-7.574219-7.570313-7.574219h-118.171875c-4.183594 0-7.574219 3.390625-7.574219 7.574219 0 4.179687 3.390625 7.570313 7.574219 7.570313h118.171875c4.183594 0 7.570313-3.390626 7.570313-7.570313zm0 0"/><path d="m103.96875 353.226562c-4.183594 0-7.574219 3.390626-7.574219 7.570313s3.390625 7.570313 7.574219 7.570313h92.917969c4.183593 0 7.574219-3.390626 7.574219-7.570313 0-4.183594-3.390626-7.570313-7.574219-7.570313zm0 0"/><path d="m355.925781 378.777344-52.082031 52.109375-15.699219-14.839844c-3.039062-2.871094-7.832031-2.738281-10.703125.300781-2.871094 3.039063-2.734375 7.832032.304688 10.703125l21.046875 19.898438c1.464843 1.378906 3.332031 2.066406 5.199219 2.066406 1.941406 0 3.878906-.738281 5.355468-2.21875l57.289063-57.3125c2.953125-2.957031 2.953125-7.753906-.003907-10.707031-2.957031-2.960938-7.75-2.957032-10.707031 0zm0 0"/><path d="m70.417969 94.847656c-9.566407 0-17.351563 7.789063-17.351563 17.363282v29.894531.042969 29.640624c0 9.574219 7.785156 17.363282 17.351563 17.363282h179.523437c9.566406 0 17.351563-7.789063 17.351563-17.363282v-59.578124c0-9.574219-7.785157-17.363282-17.351563-17.363282zm181.734375 76.941406c0 1.203126-1.011719 2.21875-2.210938 2.21875h-179.523437c-1.199219 0-2.210938-1.015624-2.210938-2.21875v-24.660156c21.445313-7.773437 41.949219-3.40625 65.445313 1.601563 17.039062 3.632812 35.421875 7.550781 56.5 7.550781 14.566406 0 30.421875-1.871094 48.007812-7 5.34375-1.558594 10.054688-3.816406 13.992188-6.164062zm0-59.578124v12.269531c-3.117188 2.746093-9.660156 7.761719-18.230469 10.265625-39.375 11.484375-68.726563 5.226562-97.109375-.824219-23.109375-4.925781-45.105469-9.609375-68.601562-2.722656v-18.988281c0-1.203126 1.011718-2.222657 2.207031-2.222657h179.523437c1.199219.003907 2.210938 1.019531 2.210938 2.222657zm0 0"/><path d="m322.835938 316.574219v-94.140625c0-4.183594-3.390626-7.574219-7.570313-7.574219-4.183594 0-7.574219 3.390625-7.574219 7.574219v94.859375c-14.117187 1.769531-27.316406 6.550781-38.910156 13.703125v-103.523438c0-9.386718-7.644531-17.019531-17.039062-17.019531h-72.699219c-4.183594 0-7.570313 3.390625-7.570313 7.570313 0 4.179687 3.386719 7.570312 7.570313 7.570312h72.699219c1.027343 0 1.898437.859375 1.898437 1.878906v114.929688c-.019531.054687-.039063.105468-.058594.15625-14.601562 13.527344-25.074219 31.453125-29.304687 51.652344l-152.6875.039062c-1.027344 0-1.894532-.871094-1.894532-1.90625v-164.871094c0-1.019531.867188-1.878906 1.894532-1.878906h72.332031c4.179687 0 7.570313-3.390625 7.570313-7.570312 0-4.179688-3.390626-7.570313-7.570313-7.570313h-72.332031c-9.394532 0-17.035156 7.632813-17.035156 17.019531v164.871094c0 9.402344 7.640624 17.046875 17.035156 17.046875h150.738281c-.082031 1.621094-.121094 3.246094-.121094 4.882813 0 6.441406.632813 12.734374 1.824219 18.828124h-208.390625v-363.164062h292.050781v115.535156c0 4.179688 3.390625 7.570313 7.574219 7.570313 4.179687 0 7.570313-3.390625 7.570313-7.570313v-138.765625c0-25.753906-20.9375-46.707031-46.667969-46.707031h-229c-25.734375 0-46.667969 20.953125-46.667969 46.707031v403.296875c0 25.753906 20.933594 46.707032 46.667969 46.707032h220.308593c15.144532 9.675781 33.125 15.289062 52.390626 15.289062 53.835937 0 97.632812-43.839844 97.632812-97.726562 0-52.90625-42.199219-96.125-94.664062-97.699219zm-307.195313-269.867188c0-17.40625 14.144531-31.566406 31.527344-31.566406h229c17.382812 0 31.523437 14.160156 31.523437 31.566406v8.089844h-292.050781zm31.527344 434.863281c-17.386719 0-31.527344-14.160156-31.527344-31.566406v-1.761718h212.65625c4.648437 12.515624 11.789063 23.828124 20.820313 33.328124zm272.699219 15.289063c-45.5 0-82.519532-37.046875-82.519532-82.585937 0-45.550782 37.019532-82.609376 82.519532-82.609376 45.484374 0 82.492187 37.0625 82.492187 82.609376 0 45.539062-37.007813 82.585937-82.492187 82.585937zm0 0"/><path d="m59.09375 26.308594h-.230469c-4.179687 0-7.570312 3.390625-7.570312 7.574218 0 4.179688 3.390625 7.570313 7.570312 7.570313h.230469c4.179688 0 7.570312-3.390625 7.570312-7.570313 0-4.183593-3.390624-7.574218-7.570312-7.574218zm0 0"/><path d="m84.71875 26.308594h-.230469c-4.179687 0-7.570312 3.390625-7.570312 7.574218 0 4.179688 3.390625 7.570313 7.570312 7.570313h.230469c4.179688 0 7.570312-3.390625 7.570312-7.570313 0-4.183593-3.390624-7.574218-7.570312-7.574218zm0 0"/></svg>